<svg width="17" height="16" viewBox="0 0 17 16" fill="none" xmlns="http://www.w3.org/2000/svg">
<g clip-path="url(#clip0_2492_21835)">
<path d="M8.66732 15.3337C12.7107 15.3337 16.0007 12.044 16.0007 8.00033C16.0007 7.30238 15.9032 6.61458 15.7103 5.95588C15.6153 5.63197 15.277 5.44592 14.9522 5.54096C14.628 5.6357 14.4426 5.97512 14.5373 6.29903C14.6971 6.84629 14.7784 7.4189 14.7784 8.00033C14.7784 11.3699 12.0369 14.1114 8.66732 14.1114C5.2977 14.1114 2.55621 11.3699 2.55621 8.00033C2.55621 4.63071 5.2977 1.88921 8.66732 1.88921C9.89193 1.88921 11.0701 2.24729 12.0745 2.92449C12.3541 3.11323 12.7343 3.03908 12.9227 2.75948C13.1113 2.47959 13.0377 2.09973 12.7579 1.91115C11.5508 1.09728 10.1365 0.666992 8.66732 0.666992C4.62393 0.666992 1.33398 3.95664 1.33398 8.00033C1.33398 12.044 4.62393 15.3337 8.66732 15.3337Z" fill="#FF3F3A"/>
<path d="M15.5292 1.52885L8.6672 8.3905L6.47188 6.19552C6.21147 5.93526 5.78959 5.93526 5.52917 6.19552C5.26892 6.45593 5.26892 6.87781 5.52917 7.13822L8.19584 9.80489C8.32621 9.93526 8.49646 10.0002 8.6672 10.0002C8.83793 10.0002 9.00818 9.93526 9.13855 9.80489L16.4719 2.47156C16.7321 2.21114 16.7321 1.78927 16.4719 1.52885C16.2115 1.2686 15.7896 1.2686 15.5292 1.52885Z" fill="#FF3F3A"/>
</g>
<defs>
<clipPath id="clip0_2492_21835">
<rect width="16" height="16" fill="white" transform="translate(0.666992)"/>
</clipPath>
</defs>
</svg>
